<?xml version="1.0" standalone="no"?>
<!DOCTYPE svg PUBLIC "-//W3C//DTD SVG 20010904//EN"
 "http://www.w3.org/TR/2001/REC-SVG-20010904/DTD/svg10.dtd">
<svg version="1.0" xmlns="http://www.w3.org/2000/svg"
 width="1024.000000pt" height="1024.000000pt" viewBox="0 0 1024.000000 1024.000000"
 preserveAspectRatio="xMidYMid meet">
<metadata>
Created by potrace 1.14, written by Peter Selinger 2001-2017
</metadata>
<g transform="translate(0.000000,1024.000000) scale(0.100000,-0.100000)"
fill="#000000" stroke="none">
<path d="M6680 9239 c-122 -11 -242 -29 -262 -40 -10 -5 -25 -9 -34 -9 -67 0
-412 -149 -547 -236 -37 -24 -70 -44 -72 -44 -3 0 -13 -7 -22 -15 -24 -20
-102 -78 -122 -90 -8 -5 -61 -54 -117 -109 -57 -54 -111 -104 -121 -111 -10
-7 -58 -15 -108 -18 -168 -11 -460 -37 -525 -47 -36 -6 -81 -13 -100 -16 -19
-3 -44 -9 -55 -14 -11 -5 -36 -11 -55 -14 -70 -10 -105 -18 -125 -26 -11 -5
-31 -11 -45 -14 -14 -2 -43 -10 -65 -16 -92 -27 -107 -25 -210 29 -54 28 -103
51 -111 51 -8 0 -14 5 -14 10 0 6 -7 10 -15 10 -8 0 -23 4 -33 10 -15 8 -56
26 -152 67 -19 8 -43 19 -52 24 -10 5 -27 9 -37 9 -11 0 -22 4 -25 9 -3 5 -20
11 -38 14 -18 3 -62 13 -98 22 -234 58 -629 40 -810 -37 -14 -6 -34 -14 -45
-18 -82 -30 -325 -150 -345 -170 -3 -3 -14 -10 -25 -17 -119 -71 -145 -88
-145 -95 0 -4 -5 -8 -11 -8 -6 0 -31 -15 -57 -32 -26 -18 -56 -38 -67 -44 -44
-23 -70 -39 -75 -45 -10 -13 -180 -119 -190 -119 -5 0 -10 -4 -10 -8 0 -5 -12
-15 -28 -22 -15 -8 -55 -33 -89 -57 -34 -24 -66 -43 -72 -43 -6 0 -11 -4 -11
-10 0 -5 -6 -10 -13 -10 -7 0 -23 -9 -35 -20 -12 -11 -23 -20 -26 -20 -5 0
-69 -40 -91 -57 -5 -5 -22 -14 -37 -22 -16 -8 -28 -18 -28 -23 0 -4 -7 -8 -15
-8 -8 0 -15 -4 -15 -10 0 -5 -4 -10 -10 -10 -5 0 -41 -20 -80 -45 -39 -25 -75
-45 -80 -45 -6 0 -10 -4 -10 -10 0 -5 -7 -10 -15 -10 -8 0 -15 -4 -15 -8 0 -4
-14 -17 -32 -27 -17 -11 -48 -30 -67 -42 -20 -13 -43 -26 -51 -30 -8 -3 -34
-19 -57 -35 -23 -15 -46 -28 -51 -28 -6 0 -12 -3 -14 -8 -4 -9 -126 -82 -139
-82 -5 0 -9 -4 -9 -10 0 -5 -6 -10 -13 -10 -7 0 -30 -17 -50 -38 -31 -32 -37
-45 -37 -81 0 -23 5 -52 11 -64 17 -34 73 -79 136 -112 32 -17 60 -33 61 -37
2 -5 12 -8 23 -8 10 0 19 -4 19 -10 0 -5 9 -10 20 -10 11 0 20 -4 20 -10 0 -5
10 -10 23 -10 13 0 27 -4 32 -8 6 -5 64 -17 130 -26 66 -10 128 -22 138 -27
10 -6 114 -10 230 -10 164 1 241 5 342 21 188 30 195 31 201 41 3 5 16 9 29 9
13 0 27 5 30 10 3 6 15 10 26 10 10 0 27 4 37 9 9 5 28 13 42 19 77 31 226
106 243 123 12 10 27 19 34 19 7 0 13 5 13 10 0 6 5 10 12 10 6 0 33 18 59 40
40 34 52 39 78 34 17 -4 31 -10 31 -15 0 -5 6 -9 14 -9 21 0 196 -91 196 -101
0 -5 5 -9 11 -9 31 0 159 -111 235 -205 53 -66 126 -172 144 -210 8 -16 21
-41 30 -55 23 -35 110 -244 110 -263 0 -9 5 -19 10 -22 6 -3 10 -17 10 -31 0
-13 4 -32 9 -42 12 -23 27 -84 40 -162 14 -84 19 -212 26 -605 3 -176 8 -345
11 -375 5 -49 15 -311 29 -780 3 -85 9 -342 15 -570 6 -228 15 -516 20 -640
19 -496 10 -676 -47 -905 -8 -33 -18 -76 -23 -95 -35 -155 -147 -390 -269
-568 -83 -120 -292 -319 -363 -345 -18 -6 -26 -37 -10 -37 4 0 57 -36 118 -81
60 -45 116 -84 124 -88 20 -8 164 -94 170 -101 4 -5 372 -188 428 -213 28 -13
60 -3 191 60 98 47 233 130 311 191 25 20 91 82 147 140 194 197 328 397 413
617 13 33 27 64 32 69 4 6 8 18 8 28 0 10 4 26 9 36 37 68 124 408 152 591 11
75 25 163 30 196 15 98 31 296 29 360 -1 60 -9 126 -30 240 -21 119 -32 191
-41 255 -13 100 -26 189 -39 255 -6 33 -15 87 -20 120 -11 70 -23 144 -45 275
-9 52 -20 124 -25 160 -13 90 -27 175 -40 240 -17 83 -23 139 -17 155 5 11 20
9 84 -16 43 -17 86 -35 95 -40 10 -5 25 -9 33 -9 8 0 15 -4 15 -10 0 -5 9 -10
20 -10 11 0 28 -4 38 -9 9 -5 44 -17 77 -26 33 -9 69 -20 80 -25 11 -4 40 -13
65 -20 86 -24 115 -33 135 -41 11 -4 34 -10 50 -14 17 -3 48 -10 70 -15 22 -5
87 -20 145 -33 58 -13 112 -26 120 -30 8 -3 33 -8 55 -12 22 -3 57 -8 78 -11
20 -4 40 -10 43 -15 3 -5 23 -9 45 -9 21 0 39 -4 39 -9 0 -5 28 -11 63 -14 34
-3 96 -13 137 -22 41 -9 104 -21 140 -26 228 -32 216 -25 225 -136 4 -48 11
-92 15 -98 4 -5 10 -28 13 -50 3 -22 15 -83 27 -135 11 -52 25 -115 30 -140 5
-25 14 -65 20 -90 5 -25 15 -67 20 -95 6 -27 15 -70 21 -95 6 -25 13 -62 16
-83 3 -20 9 -40 14 -43 5 -3 9 -20 9 -39 0 -19 4 -36 9 -39 5 -3 11 -20 14
-38 3 -18 10 -49 15 -68 52 -183 75 -258 83 -272 5 -10 9 -27 9 -37 0 -11 5
-23 10 -26 6 -3 10 -17 10 -31 0 -13 5 -24 10 -24 6 0 10 -11 10 -24 0 -14 5
-28 10 -31 6 -3 10 -15 10 -26 0 -10 5 -19 10 -19 6 0 10 -7 10 -15 0 -23 70
-178 83 -183 4 -2 7 -12 7 -23 0 -10 4 -19 8 -19 5 0 14 -16 22 -35 8 -19 17
-35 22 -35 4 0 8 -5 8 -11 0 -11 104 -166 155 -233 47 -60 173 -192 178 -186
13 12 -23 314 -47 405 -18 67 -18 67 -74 185 -54 114 -105 240 -131 325 -12
39 -26 78 -32 87 -5 10 -9 29 -9 42 0 14 -4 28 -10 31 -5 3 -10 17 -10 30 0
13 -4 27 -10 30 -5 3 -10 16 -10 27 0 12 -4 35 -9 52 -30 98 -87 339 -97 406
-3 19 -9 44 -14 55 -5 11 -11 36 -14 55 -3 19 -10 60 -15 90 -6 30 -16 84 -22
120 -6 36 -15 90 -20 120 -16 90 -22 191 -13 200 8 7 33 5 134 -14 14 -2 75
-12 135 -21 61 -9 126 -20 146 -25 20 -6 54 -10 76 -10 21 0 44 -5 50 -11 18
-18 414 -17 483 0 145 36 279 92 370 154 42 29 149 114 160 128 3 4 35 40 71
80 37 41 82 94 100 119 56 74 149 209 149 216 0 4 11 22 25 40 14 18 25 36 25
40 0 6 33 79 61 136 5 10 9 25 9 33 0 8 5 15 10 15 6 0 10 13 10 29 0 17 5 33
10 36 6 3 10 21 10 40 0 19 5 37 10 40 6 4 10 55 10 120 0 65 -4 116 -10 120
-5 3 -10 15 -10 26 0 10 -4 27 -9 37 -5 9 -16 32 -23 50 -7 17 -16 32 -20 32
-5 0 -8 5 -8 11 0 31 -177 208 -322 322 -29 23 -60 49 -69 59 -9 10 -19 18
-23 18 -4 0 -21 13 -39 29 -33 30 -58 52 -99 85 -12 11 -68 58 -123 105 -55
47 -113 97 -129 111 -37 31 -110 95 -151 132 -16 16 -65 56 -107 90 -42 35
-80 70 -85 78 -4 8 -11 139 -15 290 -8 320 -17 468 -29 492 -5 9 -9 30 -9 47
0 16 -4 33 -10 36 -5 3 -10 17 -10 30 0 13 -4 27 -10 30 -5 3 -10 17 -10 30 0
13 -3 25 -7 27 -5 2 -26 40 -48 85 -22 46 -43 83 -47 83 -5 0 -8 7 -8 15 0 8
-5 15 -11 15 -6 0 -9 10 -7 23 3 21 10 23 123 34 66 6 136 16 155 22 19 6 58
16 85 22 131 33 466 238 537 331 14 18 34 42 45 53 32 34 83 113 83 129 0 8 4
17 9 21 5 3 13 30 16 60 13 99 -24 138 -195 208 -25 10 -54 22 -65 27 -11 5
-87 34 -170 65 -82 32 -154 61 -160 66 -5 5 -15 9 -22 9 -7 0 -36 11 -65 24
-29 13 -93 41 -143 61 -49 20 -103 43 -120 50 -16 7 -86 34 -155 59 -69 26
-134 51 -145 55 -11 5 -40 14 -65 21 -25 7 -54 16 -65 20 -72 30 -336 51 -475
39z m359 -260 c20 -7 45 -15 56 -19 11 -4 40 -14 65 -21 25 -7 49 -16 55 -21
5 -4 17 -8 26 -8 9 0 34 -9 56 -19 21 -11 56 -27 78 -36 22 -9 57 -25 78 -36
22 -10 45 -19 53 -19 8 0 14 -4 14 -10 0 -5 6 -10 13 -10 8 0 54 -20 103 -44
148 -73 253 -120 372 -166 97 -38 112 -47 110 -64 -3 -20 -9 -21 -123 -20
-118 1 -145 4 -235 26 -73 17 -250 78 -315 108 -157 72 -262 112 -345 130 -30
7 -68 16 -84 21 -63 19 -172 8 -293 -29 -75 -24 -163 -75 -223 -131 -36 -33
-72 -62 -81 -64 -27 -7 -52 18 -44 45 15 49 82 145 141 203 64 62 239 175 273
175 11 0 23 5 26 10 8 14 180 13 224 -1z m-3694 -524 c87 -18 206 -55 270 -84
22 -10 57 -24 78 -32 20 -7 37 -17 37 -21 0 -4 7 -8 15 -8 9 0 65 -25 127 -56
100 -50 116 -55 154 -49 24 3 119 -1 211 -11 168 -16 289 -15 403 6 298 53
525 82 795 104 110 9 245 22 300 28 126 15 334 16 400 1 112 -25 177 -44 242
-69 37 -14 93 -35 123 -46 69 -25 184 -80 188 -90 2 -5 12 -8 23 -8 10 0 19
-4 19 -9 0 -5 8 -11 18 -14 33 -11 204 -116 222 -136 3 -4 24 -18 47 -33 48
-31 233 -210 233 -225 0 -5 11 -23 25 -39 14 -16 31 -41 38 -56 6 -16 15 -28
19 -28 5 0 8 -8 8 -18 0 -10 5 -23 12 -30 7 -7 13 -62 16 -142 l5 -130 -31 0
c-17 0 -34 5 -37 10 -11 18 -37 10 -70 -23 -42 -42 -69 -132 -60 -196 8 -51
59 -181 87 -223 10 -14 18 -29 18 -32 0 -9 134 -203 161 -233 28 -31 228 -219
298 -280 127 -110 151 -131 187 -160 21 -17 48 -40 59 -50 11 -10 45 -38 75
-63 30 -25 57 -47 60 -50 3 -3 32 -28 65 -55 33 -28 65 -54 71 -60 6 -5 49
-41 95 -80 46 -38 112 -97 147 -130 65 -61 132 -160 132 -196 0 -10 5 -28 12
-38 15 -25 -5 -74 -35 -88 -75 -34 -244 -46 -318 -22 -93 30 -167 88 -198 154
-7 17 -17 38 -22 47 -5 10 -9 29 -9 43 0 25 -1 25 -24 10 -24 -16 -56 -60 -98
-133 -17 -30 -21 -54 -22 -132 -1 -99 13 -164 46 -212 10 -14 18 -29 18 -33 0
-3 18 -32 40 -65 59 -86 165 -186 253 -237 42 -25 77 -49 77 -53 0 -17 -128
-108 -195 -139 -126 -59 -164 -74 -220 -90 -54 -15 -231 -34 -253 -27 -9 3
-53 10 -97 15 -263 32 -677 183 -944 343 -34 21 -65 38 -66 38 -21 0 -386 239
-543 356 -73 55 -158 117 -189 139 -53 38 -84 62 -192 153 -72 60 -141 128
-141 139 0 14 50 63 64 63 6 0 28 13 49 29 l38 29 -96 7 c-128 10 -198 1 -260
-34 -72 -41 -90 -70 -89 -144 1 -126 105 -279 302 -444 31 -26 64 -55 72 -63
18 -18 138 -110 144 -110 2 0 43 -24 92 -53 49 -29 103 -59 119 -67 17 -8 32
-17 35 -20 3 -3 41 -23 84 -46 117 -59 113 -82 -9 -58 -39 8 -92 19 -120 24
-64 13 -114 24 -195 45 -36 9 -112 28 -170 42 -58 15 -127 35 -155 45 -27 10
-58 18 -67 18 -10 0 -26 4 -36 9 -16 8 -38 18 -94 40 -13 5 -52 18 -88 29
-109 35 -213 74 -250 95 -19 11 -64 36 -100 55 -36 19 -77 43 -92 54 -14 10
-31 18 -37 18 -6 0 -11 4 -11 8 0 4 -20 21 -45 36 -25 16 -82 68 -127 115
-153 159 -238 368 -238 583 0 198 71 422 182 578 63 88 215 247 289 302 38 28
67 53 65 55 -2 3 -24 -1 -48 -7 -23 -6 -70 -18 -103 -27 -33 -8 -69 -19 -80
-23 -11 -4 -49 -18 -85 -30 -217 -74 -461 -223 -665 -404 -38 -35 -69 -55 -75
-50 -4 5 -29 65 -55 134 -112 296 -267 548 -466 755 -62 64 -124 123 -138 130
-14 8 -40 28 -58 44 -18 17 -34 31 -37 31 -3 0 -29 15 -58 33 -78 50 -167 97
-183 97 -7 0 -16 8 -20 17 -4 13 5 28 33 53 63 56 82 70 91 70 5 0 11 6 14 13
7 19 186 137 208 137 10 0 21 5 24 10 3 6 22 10 41 10 60 0 126 -79 263 -314
13 -23 32 -53 42 -68 11 -14 19 -31 19 -37 0 -6 4 -11 9 -11 5 0 12 -9 16 -20
6 -20 55 -84 102 -132 30 -32 133 -88 162 -88 18 0 20 9 24 88 8 152 50 307
118 434 5 10 9 27 9 37 0 11 4 22 9 25 5 3 11 20 14 38 2 18 16 76 30 128 37
142 38 150 2 170 -26 14 -120 54 -190 80 -32 12 -79 32 -97 41 -10 5 -25 9
-33 9 -8 0 -23 4 -33 9 -62 33 -289 39 -452 12 -117 -19 -136 -23 -155 -30
-11 -5 -51 -18 -90 -31 -110 -35 -248 -106 -405 -208 -80 -52 -147 -97 -150
-101 -3 -4 -18 -15 -33 -24 -35 -22 -36 -23 -177 -142 -63 -53 -152 -131 -196
-173 -109 -103 -204 -186 -218 -191 -6 -2 -20 -11 -31 -21 -27 -22 -117 -60
-185 -76 -61 -15 -316 -19 -324 -5 -8 13 21 35 99 76 85 45 323 206 355 240
13 14 28 25 32 25 5 0 15 6 22 13 38 36 86 77 92 77 3 0 38 29 77 65 39 36 75
65 79 65 4 0 25 15 45 34 94 86 131 116 141 116 6 0 12 4 14 8 4 10 126 105
155 120 12 7 27 18 35 25 7 7 65 47 128 89 239 156 495 266 628 269 20 0 46 4
57 9 27 12 131 5 230 -15z m4068 -1300 c79 -79 47 -195 -54 -195 -43 0 -63 16
-85 68 -20 47 -5 107 34 139 38 32 64 29 105 -12z"/>
<path d="M5620 7177 c-48 -24 -94 -60 -177 -144 -62 -61 -113 -119 -113 -129
0 -60 180 -263 275 -310 50 -24 61 -26 152 -21 54 3 121 10 148 16 147 33 344
36 418 6 12 -5 17 -2 17 9 0 24 -68 190 -117 285 -91 174 -149 238 -268 292
-58 26 -75 29 -167 29 -95 -1 -108 -3 -168 -33z m312 -130 c21 -8 49 -24 63
-37 21 -20 25 -32 25 -83 0 -53 -3 -63 -30 -88 -25 -25 -38 -29 -83 -29 -46 0
-58 4 -84 31 -36 34 -48 74 -38 125 5 28 16 42 53 65 53 34 46 32 94 16z"/>
</g>
</svg>
